<svg xmlns="http://www.w3.org/2000/svg" x="0px" y="0px" width="100" height="100" viewBox="0 0 64 64">
<path fill="none" stroke="#9c34c2" stroke-miterlimit="10" stroke-width="6" d="M22,22v-4c0-5.523,4.477-10,10-10h0	c5.523,0,10,4.477,10,10v4"></path><ellipse cx="32" cy="61" opacity=".3" rx="19" ry="3"></ellipse><path fill="orange" d="M48,19H16c-3.314,0-6,2.686-6,6v23c0,3.314,2.686,6,6,6h32c3.314,0,6-2.686,6-6V25	C54,21.686,51.314,19,48,19z"></path><circle cx="32" cy="34" r="4" fill="#9c34c2"></circle><path fill="#9c34c2" d="M32,44L32,44c-1.105,0-2-0.895-2-2v-5h4v5C34,43.105,33.105,44,32,44z"></path><path fill="#fff" d="M30,24c2.761,0,5-2.239,5-5H16c-3.314,0-6,2.686-6,6v18c2.761,0,5-2.239,5-5V25 c0-0.551,0.449-1,1-1H30z" opacity=".3"></path><path d="M54,48V31c-2.761,0-5,2.239-5,5v12c0,0.551-0.449,1-1,1H31c-2.761,0-5,2.239-5,5h22 C51.314,54,54,51.314,54,48z" opacity=".15"></path><path fill="none" stroke="#fff" stroke-linecap="round" stroke-linejoin="round" stroke-miterlimit="10" stroke-width="3" d="M14,29.5V25c0-1.103,0.897-2,2-2h5.5"></path>
</svg>